<?xml version="1.0" encoding="utf-8"?>
<svg xmlns="http://www.w3.org/2000/svg" viewBox="0 0 512 512">
<path d="M119.9,334.1l-2.1,0.8l12.1,76.3h-12.6L105,340.8l-12.4,5.7L89,327.7l12.6-6L63.7,104.9h17.5l33.5,210.7
	l2.2-0.9L119.9,334.1z M51.6,244H37.7L14,106.2h23.3L71.3,244H57.5l-19.6-79.4L51.6,244z M70.6,221.6L56,152h12.8l13.8,69.6H70.6z
	 M85.1,298.6l-12.4-58.4h11.7l11.7,58.4H85.1z M86,319.9h-8L96.5,412H82.4l-3.7-16.8h1.2l-16.4-75.3H55l-4.6-20.1h8.7l-4.9-22.6
	h-8.9l-5-22.1h33.2l4.3,22.1h-8.4l4.6,22.6h8.2L86,319.9z M57.7,328.8h6.4l15.4,74.1h-5.7L57.7,328.8z M86.9,328.8l15.2,74.1h-5.8
	l-15.6-74.1H86.9z M109,155.3l-9-54.3h17.7l8.2,54.3H109z M159.8,155.3H143l-4.5-54.3h17.7L159.8,155.3z M141.1,274.2l0.5,14.8h34
	c1.2,0,2.3,1.9,3.5,5.7c1.2,3.7,2,8.2,2.4,13.4l8.5,103h-45.1l-7.2-51.9h-10.1l-4.6-84.9h-8.8l-3.4-22.6h10.9l-1-18.8h-9.8
	l-3.6-23.9h12.1l-1.1-19.8h-15.6l-4-26.6h72.9l2.1,26.6H138l0.7,19.8h34.8l2,23.9h-35.9l0.7,18.8h39.6l1.8,22.6H141.1z M149.5,328.3
	h18.1l-1.3-12.6c-0.4-4.1-1.1-6.2-2.1-6.2h-17.1L149.5,328.3z M153.8,364.3h17.4l-1.7-17.2h-17.7L153.8,364.3z M157.6,395.4h16.7
	l-1.4-14h-17L157.6,395.4z M211,259l-1,19h34.1c1.2,0,2.2,1.9,3.1,5.8c0.9,3.8,1.4,8.4,1.4,13.7l0.8,113.5h-43.5l-3.9-63.2h-11.2
	l2.6-88.8h-7.2l-1.7-23.3h9.6l1-30.7h-8.2l-1.8-26.1h10.7l1.1-36.9l-15.1,2.1l-2-29l68.3-8.4l0.2,29l-31.4,3.8L215,179h32.9
	l0.2,26.1h-34.4l-1.5,30.7h40.6l0.1,23.3H211z M215.8,319.4h17.3l-0.4-14.3c-0.1-4.2-0.6-6.3-1.6-6.3h-16.3L215.8,319.4z
	 M217.7,361.6h16.5l-0.6-23.1h-16.9L217.7,361.6z M219.2,395.4H235l-0.4-16.2h-16.1L219.2,395.4z M315.4,396.4l-1.2,15.6h-57.5
	l0-15.6h23.1l2.4-75.6h-20.6l0.2-20h21.1l2.9-92.1h-8.8l-3.5,63.1h-15.5l5.2-146.6h18.4l-3.2,58.3h8.2l2.5-80.7h22.1l-4.1,80.7h20.9
	l-1.8,25.2h-20.4l-4.7,92.1h17.1l-1.4,20H300l-3.9,75.6H315.4z M390.3,300.5l-9.8,21.5l-8.2,90h-12.5l4-53.6l-9.5,20.9l2.6-21.1
	l8.4-18.6l9.8-132.9h-21.5l-3.9,39.6h14.2c1.3,0,2.1,2.1,2.5,6.2c0.4,4.1,0.2,9-0.4,14.7l-14.6,122.6h-14.8l1.8-17.5h1.9l9.9-96.4
	c0.5-4.5,0.2-6.7-0.8-6.7h-1.9l-14.2,143H319l18.9-231.5H377l5.7-77.6h17.7l-7.1,77.6h15l-3.9,26.1h-13.4l-8.6,94.6l11.8-26
	L390.3,300.5z M397.5,159.9l5.1-50.8h12.6l-5.6,50.8H397.5z M441.6,224.4h-30.7l17.3-107.9h29c1.4,0,2.2,2.7,2.1,8
	c0,5.3-0.7,11.6-2.1,18.8L441.6,224.4z M475.9,224.4h-30.7l21.1-107.9h29c1.4,0,2,2.7,1.8,8c-0.2,5.3-1.1,11.6-2.7,18.8L475.9,224.4
	z M440.8,154.1c1-5.7,1-8.6-0.2-8.6h-1.8l-9.6,55h3.3L440.8,154.1z M476.6,154.1c1.2-5.7,1.3-8.6,0.1-8.6h-1.8l-11.5,55h3.3
	L476.6,154.1z M420.3,275.8h-19.2l3.5-22.1h24.9l3.9-21.1h16.8l-4.3,21.1h4.7l3.5-21.1h15.6l-3.8,21.1h3.9l-5,22.1h-18.3l5,57h-19
	l-3.8-31l-15.8,31h-19.6L420.3,275.8z M415.5,339.2c1.1,0,1.8,1.7,2,5.1c0.2,3.3-0.2,7.3-1.1,12L405.9,411h-25.6l11.4-71.8H415.5z
	 M446.4,339.2c1.1,0,1.7,1.7,1.7,5.1c0.1,3.3-0.5,7.3-1.5,12L434.2,411h-25.5l14-71.8H446.4z M403.6,362.8c0.7-3.7,0.5-5.5-0.4-5.5
	H401l-6.6,38.1h3.4L403.6,362.8z M433.4,362.8c0.8-3.7,0.7-5.5-0.2-5.5H431l-8,38.1h3.5L433.4,362.8z"/>
</svg>
