<?xml version="1.0" encoding="utf-8"?>
<svg xmlns="http://www.w3.org/2000/svg" viewBox="0 0 628 234">
<path d="M140.9,170.7l-2.7,0.6l15.4,53.9h-16l-15.6-49.8l-15.7,4.1l-4.6-13.3l16-4.2L69.7,8.8h22.2l42.4,148.8l2.8-0.6L140.9,170.7z M54.3,107H36.7L6.6,9.7h29.5L79.3,107H61.7L36.9,50.9L54.3,107z M78.4,91.3L59.9,42.1h16.2l17.5,49.2H78.4z M96.8,145.6l-15.7-41.3H96l14.8,41.3H96.8z M97.8,160.7H87.7l23.5,65H93.3l-4.7-11.9h1.5l-20.8-53.2H58.6l-5.8-14.2h11l-6.2-16H46.3l-6.4-15.6H82l5.4,15.6H76.8l5.8,16h10.4L97.8,160.7z M62,167h8.1l19.5,52.3h-7.3L62,167z M99.1,167l19.2,52.3h-7.3L91.1,167H99.1z M127.1,44.4L115.6,6H138l10.3,38.4H127.1z M191.4,44.4h-21.3L164.4,6h22.4L191.4,44.4z M167.7,128.4l0.6,10.4h43.1c1.5,0,3,1.3,4.5,4c1.5,2.6,2.5,5.8,3,9.5l10.8,72.7h-57.1l-9.2-36.6h-12.8l-5.9-60h-11.1l-4.4-15.9H143l-1.3-13.3h-12.4l-4.5-16.9h15.3l-1.4-14h-19.8l-5.1-18.8h92.4l2.7,18.8h-45.2l0.9,14h44.1l2.5,16.9h-45.5l0.9,13.3h50.2l2.3,15.9H167.7z M178.3,166.6h22.9l-1.6-8.9c-0.5-2.9-1.4-4.3-2.6-4.3h-21.6L178.3,166.6z M183.8,192.1h22l-2.2-12.2h-22.5L183.8,192.1z M188.6,214h21.2l-1.8-9.9h-21.5L188.6,214z M256.2,117.7l-1.2,13.4h43.2c1.5,0,2.8,1.4,4,4.1c1.1,2.7,1.7,5.9,1.8,9.7l1,80.1h-55.1l-5-44.6h-14.2l3.3-62.7h-9.1l-2.2-16.4h12.1l1.2-21.7h-10.4l-2.3-18.4H237l1.4-26.1l-19.1,1.5l-2.5-20.5l86.5-5.9l0.2,20.5l-39.8,2.7l-2.4,27.9H303l0.2,18.4h-43.6l-2,21.7h51.4l0.1,16.4H256.2z M262.4,160.3h21.9l-0.5-10.1c-0.1-3-0.8-4.4-2-4.4h-20.6L262.4,160.3z M264.8,190.1h20.9l-0.7-16.3h-21.5L264.8,190.1z M266.7,214h20l-0.5-11.4h-20.4L266.7,214z M388.5,214.7l-1.5,11h-72.8l0-11h29.3l3-53.4h-26.1l0.2-14.2h26.7l3.6-65h-11.2l-4.4,44.6h-19.6l6.6-103.5h23.4l-4.1,41.1h10.4l3.2-57h28l-5.2,57h26.5l-2.3,17.8h-25.8l-6,65h21.7l-1.8,14.2H369l-4.9,53.4H388.5z M483.4,147L471,162.2l-10.4,63.6h-15.8l5-37.9l-12.1,14.7l3.2-14.9l10.6-13.2L464,80.6h-27.2l-5,28h18c1.6,0,2.7,1.5,3.2,4.4c0.5,2.9,0.3,6.4-0.5,10.4L434,209.9h-18.8l2.2-12.4h2.3l12.6-68.1c0.6-3.2,0.2-4.8-1-4.8H429l-18,101h-17.8l23.9-163.5h49.5l7.3-54.8h22.4l-9,54.8h19l-5,18.4h-17l-10.9,66.8l14.9-18.4L483.4,147z M492.6,47.7l6.5-35.9h16l-7.1,35.9H492.6z M548.5,93.2h-39L531.4,17h36.7c1.8,0,2.7,1.9,2.7,5.7c0,3.7-0.9,8.2-2.7,13.3L548.5,93.2z M591.9,93.2h-39L579.6,17h36.7c1.8,0,2.5,1.9,2.3,5.7c-0.2,3.7-1.4,8.2-3.5,13.3L591.9,93.2z M547.4,43.6c1.3-4.1,1.2-6.1-0.2-6.1h-2.3l-12.2,38.8h4.2L547.4,43.6z M592.8,43.6c1.5-4.1,1.6-6.1,0.2-6.1h-2.3l-14.6,38.8h4.2L592.8,43.6z M521.5,129.5h-24.4l4.4-15.6h31.5L538,99h21.3l-5.4,14.9h5.9l4.4-14.9H584l-4.8,14.9h5l-6.4,15.6h-23.2l6.3,40.3h-24.1l-4.8-21.9l-20,21.9h-24.9L521.5,129.5z M515.4,174.3c1.5,0,2.3,1.2,2.5,3.6c0.2,2.4-0.3,5.2-1.4,8.4L503.2,225h-32.4l14.5-50.7H515.4z M554.6,174.3c1.4,0,2.1,1.2,2.2,3.6c0.1,2.4-0.6,5.2-1.9,8.4L539.1,225h-32.3l17.8-50.7H554.6z M500.4,191c0.8-2.6,0.7-3.9-0.5-3.9h-2.8l-8.4,26.9h4.3L500.4,191z M538.1,191c1-2.6,0.9-3.9-0.2-3.9H535L524.9,214h4.4L538.1,191z"/>
</svg>